# xmcd
#
# Track frame offsets: 
#        183
#        11433
#        24540
#        36343
#        53808
#        68978
#        79090
#        120810
#        131860
#        140998
#        149723
#        162740
#        173625
#        182870
#        192715
#        202545
#        215065
#        229908
#        236625
#        242710
#
# Disc length: 3308 seconds
#
# Revision: 0
# Processed by: cddbd v1.5.1PL0 Copyright (c) Steve Scherf et al.
# Submitted via: ExactAudioCopy v0.95a4
#
DISCID=300cea14
DTITLE=Various Artist - Cliffie Stone's Radio Transcriptions 1945-1949
DYEAR=1900
DGENRE=Country
TTITLE0=Harlod Hensley - Draggin' The Bow
TTITLE1=Armstrong Twins (Floyd and Lloyd) - Beautiful Brown Eyes
TTITLE2=Tennessee Ernie Ford with Merle Travis - Mine All Mine
TTITLE3=Tennessee Ernie Ford with Lloyd Armstrong - Muleskinner Blues
TTITLE4=Armstrong Twins with Hensley, Les Anderson - Little Cabin Home
TTITLE4=On The Hill
TTITLE5=Les Anderson - Blue Steel Blues
TTITLE6=Armstrong Twins - Stuck Up Blues-Mandolin Blues-Bill Cheatum
TTITLE7=Red Murrell - Red's Boogie
TTITLE8=Jimmy Wakely with Jack Rivers - Freight Train Blues
TTITLE9=Jack Rivers - After You've Gone (instr.)
TTITLE10=Harold Hensley - Flop Eared Mule
TTITLE11=Cliffie Stone with Harold Hensley and Eddie Kirk - Sugar Hill
TTITLE12=Harold Hensley with Eddie Kirk - Cactus Set-Up 
TTITLE13=Cliffie Stone with Harold Hensley and Eddie Kirk - Daughter Of 
TTITLE13=Jolie Blon
TTITLE14=Andy Hallcom with Tex Atchison - Steel Guitar Rag
TTITLE15=Tex Atchison with Andy Hallcom and Merle Travis - Free Little B
TTITLE15=ird
TTITLE16=Patsy Armstrong with Armstrong Twins - Honky Tonkin'
TTITLE17=Tex Atchison and Harold Hensley with Merle Travis - Lady Be Goo
TTITLE17=d
TTITLE18=Fiddlin' Arthur Smith - Sally Goodin
TTITLE19=Jack Rivers - Little Rock Getaway
EXTD=
EXTT0=
EXTT1=
EXTT2=
EXTT3=
EXTT4=
EXTT5=
EXTT6=
EXTT7=
EXTT8=
EXTT9=
EXTT10=
EXTT11=
EXTT12=
EXTT13=
EXTT14=
EXTT15=
EXTT16=
EXTT17=
EXTT18=
EXTT19=
PLAYORDER=
